<svg id="Lager_1" data-name="Lager 1" xmlns="http://www.w3.org/2000/svg" viewBox="0 0 502.21 563.12"><defs><style>.cls-1{fill:#21386f;fill-rule:evenodd;}</style></defs><title>guides</title><path class="cls-1" d="M543.07,703.11H518.68V535.77l-69.31,4.39v163H419.85a30.81,30.81,0,1,0,0,61.61H543.07a30.81,30.81,0,0,0,0-61.61Z" transform="translate(-230.61 -201.61)"/><path class="cls-1" d="M518.68,236.26a34.66,34.66,0,0,0-69.31,0V284.2l69.31,11.35Z" transform="translate(-230.61 -201.61)"/><path class="cls-1" d="M663.79,408.89c-2.32-1.26-8.36-2.78-12.25-2.16L326.4,455l8.05,69.33L663,503.47a24.56,24.56,0,0,0,11.22-4.69l58.59-52.35Z" transform="translate(-230.61 -201.61)"/><path class="cls-1" d="M636.29,385.63l4.2-36.18a11.07,11.07,0,0,0-9.09-12L328.57,287.84a23.07,23.07,0,0,0-3.75-.28c-5.29,0-11.68,1.39-15.7,3.57l-74.28,40.39c-5,2.74-5.66,8.11-1.38,11.93l63,56.33c4.28,3.82,12.46,7.29,18.18,7.7L431.86,416Z" transform="translate(-230.61 -201.61)"/></svg>