<svg id="Lager_1" data-name="Lager 1" xmlns="http://www.w3.org/2000/svg" viewBox="0 0 491.24 504.29"><defs><style>.cls-1{fill:#21386f;}</style></defs><title>recipes</title><path class="cls-1" d="M760,250.84C745.45,237,714,245.51,689.27,270.25,644.74,314.78,569.91,416.56,546.1,440.34c-14.1,14.11-31.82,13.2-49.51,13.34-15.19.12-30.62,4.51-42.16,16.13,0,0-3.69,3.88-8.62,10.33,13.61.72,28.26,1.15,44.25,1.15,27.35,0,51.06-1.21,71.61-3.15a40.39,40.39,0,0,1,8.87-13.34C594.35,441,696.13,366.17,740.65,321.65,765.35,296.92,773.89,265.41,760,250.84Z" transform="translate(-275.42 -201.61)"/><path class="cls-1" d="M513.73,366.68c11.64,6.14.32-15.46,16.94-41.17s1.63-49.28-7.93-53.79c3.39,15.18-10.11,23.62-17.42,42.15C495.71,338.29,500.92,360,513.73,366.68Z" transform="translate(-275.42 -201.61)"/><path class="cls-1" d="M476.67,353.18c13.5-3.93-1.13-32,16.86-58.4,26.41-38.77-.58-82.62-21.11-93.17,3.69,35.27-10,29.94-32,71.3S463.17,357.12,476.67,353.18Z" transform="translate(-275.42 -201.61)"/><path class="cls-1" d="M490.41,389c-80.75,0-215,10.93-215,64.63,0,108.95,55.3,200.67,118.53,233.84,7.92,4.16,35.48,18.45,96.45,18.45h0c61,0,88.51-14.29,96.45-18.45,63.25-33.17,118.53-124.89,118.53-233.84C705.39,399.91,571.14,389,490.41,389Zm0,112.62c-120.87,0-172.07-23.51-172.07-32.88s51.2-32.85,172.07-32.85,172,23.51,172,32.85S611.29,501.6,490.41,501.6Z" transform="translate(-275.42 -201.61)"/></svg>