<?xml version="1.0" encoding="UTF-8"?>
<svg id="Lager_1" data-name="Lager 1" xmlns="http://www.w3.org/2000/svg" viewBox="0 0 166.02 212.97"><defs><style>.cls-1{fill:#0e3478;}</style></defs><title>science</title><path class="cls-1" d="M119.81,196a6.67,6.67,0,0,0,8.41-4.22l1.93-5.79a20.2,20.2,0,0,1-3.25-.77l-26.3-8.74A20.05,20.05,0,0,1,96,174.22L94,180.43a6.68,6.68,0,0,0,4.22,8.41Z" transform="translate(-66.63 -39)"/><path class="cls-1" d="M228.16,214.67l-26,3.08a67.64,67.64,0,0,0,13.35-34.92,59.65,59.65,0,0,0-16-45.5,67.07,67.07,0,0,0-9.2-8.16,33,33,0,0,0,.33-4.37A31.89,31.89,0,0,0,172.32,96l10.15-29.67a14,14,0,0,0-8.86-17.86l-26.3-8.74a14.36,14.36,0,0,0-18,8.94L93.58,153.09A14.06,14.06,0,0,0,102.44,171l26.31,8.74a14.36,14.36,0,0,0,18-8.94l5.07-14.86a31.47,31.47,0,0,0,24.41-4.46,38.75,38.75,0,0,1,4.05,3.71,33.3,33.3,0,0,1,9,25.71c-1.44,19.16-17,35.64-37.95,42.89L77,232.53a8.23,8.23,0,0,0-6.1,4.75l-4,10.47A2.91,2.91,0,0,0,69.82,252H228.13a4.53,4.53,0,0,0,4.52-4.52V218.66A3.94,3.94,0,0,0,228.16,214.67ZM144.93,124.8a13.85,13.85,0,1,1,13.85,13.85A13.87,13.87,0,0,1,144.93,124.8Z" transform="translate(-66.63 -39)"/></svg>